<svg id="Layer_1" data-name="Layer 1" xmlns="http://www.w3.org/2000/svg" xmlns:xlink="http://www.w3.org/1999/xlink" viewBox="0 0 316.7 56.38"><defs><style>.cls-1{fill:none;}.cls-2{clip-path:url(#clip-path);}.cls-3,.cls-4{fill:#849173;}.cls-4{stroke:#849173;stroke-linecap:round;stroke-miterlimit:10;stroke-width:3px;}</style><clipPath id="clip-path" transform="translate(0 0)"><rect class="cls-1" width="317.28" height="56.61"/></clipPath></defs><g class="cls-2"><g id="Group_19" data-name="Group 19"><g class="cls-2"><g id="Group_18" data-name="Group 18"><path id="Path_23" data-name="Path 23" class="cls-3" d="M3.66,37.1l.16-18.33H.44L0,16.56A32.25,32.25,0,0,0,10,7.71l2.31.67a24.29,24.29,0,0,0-.66,6.8l8.51-.28-.89,4-7.62-.1-.1,17.7c0,3.79,1.37,5.63,3.38,6.37.8.3,291.28,1.55,292.24,1.55s4.22.09,6.39.1h1.65V48H14.69c-9.17-.82-11-2.62-11-10.91" transform="translate(0 0)"/><path id="Path_24" data-name="Path 24" class="cls-3" d="M38.28,15.19a14,14,0,0,1,4.15-.82c5.35,0,8.43,2.2,8.43,9.94V33c0,3.48.44,5.9,3.82,6.23v1.55c-1.93-.1-4.91-.16-7.46-.16s-4.75,0-7.38.16V39.29C43.06,39,43,36.34,43,32.93V25.6c0-4.52-.78-6.35-4.87-6.35a20.14,20.14,0,0,0-3.8,1.1V32.89c0,3.7,0,6,3.09,6.35v1.48c-3-.12-5-.16-7.38-.16s-5.31,0-7.68.16V39.24c3.42-.28,4.14-2.37,4.14-6.3V12.3c0-2.38-.22-5.35-1-6.3L22,4.89l-.22-1.37L33.4.1l1.39,1.21a57.91,57.91,0,0,0-.39,7.9v9.66a32.83,32.83,0,0,1,4-3.58" transform="translate(0 0)"/><path id="Path_25" data-name="Path 25" class="cls-3" d="M56.41,28.39c0-8.29,5.53-14.2,13-14.2S79.36,19.72,79.36,25L78,26.34H64.18c.44,7.24,4,10.6,8.28,10.66a17.15,17.15,0,0,0,6.78-1.37l.55,1.65a82,82,0,0,1-9.16,4.14c-8.1.44-14.23-3.7-14.23-13m15.19-3.93c.17-5.53-1.47-8.16-3.31-8.16-3.15,0-4.15,4.24-4,8.49Z" transform="translate(0 0)"/><path id="Path_26" data-name="Path 26" class="cls-3" d="M93.2,28.39c0-8.29,5.51-14.2,13-14.2s9.93,5.53,9.93,10.78l-1.39,1.37H101c.44,7.24,4,10.6,8.29,10.66A17,17,0,0,0,116,35.63l.56,1.65a85.57,85.57,0,0,1-9.16,4.14c-8.12.45-14.24-3.7-14.24-13m15.19-3.92c.14-5.53-1.48-8.17-3.32-8.17-3.16,0-4.14,4.24-4,8.49Z" transform="translate(0 0)"/><path id="Path_27" data-name="Path 27" class="cls-3" d="M116.89,39.21c2.1-.16,3.53-1,7.38-5.63,1-1.21,3-3.7,4-5-1.17-1.77-2.76-4.15-4-5.9-3.75-5.25-5-6.3-6.3-6.36V14.8c2.21.12,4.7.18,7.24.18s4.86-.12,6.78-.18v1.55c-1.71.12-1.92,1.61-.6,3.76.49.83,1.65,2.6,2.31,3.54.67-.88,1.48-2.15,2.06-2.95,1.59-2.61,1.14-4.14-1.29-4.32V14.83c1.48,0,4,.18,6.3.18,1.95,0,4.15-.12,5.21-.18v1.55c-1.77.12-2.78.62-6.48,4.87-1.1,1.27-2.75,3.2-4,4.69,1.37,2,3.42,5.14,4.69,6.91,3.75,5.42,5.25,6.3,6.89,6.4v1.48c-2.6-.12-4.42-.17-6.89-.17s-5.9,0-8.38.17V39.25c2.4-.16,2.62-1.39.37-4.87-.83-1.37-1.39-2.31-2.1-3.3-.38.55-1,1.48-1.65,2.48-2.47,3.92-2.15,5.41.67,5.69v1.48c-1.61,0-3.76-.17-6.08-.17-1.87,0-4,0-6.07.17Z" transform="translate(0 0)"/><path id="Path_28" data-name="Path 28" class="cls-3" d="M147.31,54.85c4.43-.33,4.7-3,4.7-6.24V26.34c0-2.38-.16-5.3-1-6.24l-3-1.11-.22-1.38,11-3.36,1.38,1.1a24.59,24.59,0,0,0-.33,3.42,31.85,31.85,0,0,1,4-3.48,12.2,12.2,0,0,1,4.14-.82c5.53,0,9.9,4,9.9,12.59,0,9.94-7.13,14.2-12.94,14.24a7.6,7.6,0,0,1-5-1.37V48.6c0,4.15,1.11,5.8,5.53,6.3v1.48c-3-.12-6.56-.16-9.05-.16s-5.9,0-9,.16Zm22.19-26.4c0-6.48-2.09-9.24-5.89-9.34a19.54,19.54,0,0,0-3.75,1.21V33.14c0,3.79,1.11,6.07,4.14,6.07C167.74,39.21,169.5,34.24,169.5,28.45Z" transform="translate(0 0)"/><path id="Path_29" data-name="Path 29" class="cls-3" d="M179.85,39.21c3.58-.22,4.74-1.39,4.74-5.63V12.19c0-2.37-.22-5.35-1-6.3l-3.44-1.1-.22-1.37L191.44,0l1.38,1.21a48.47,48.47,0,0,0-.38,7.9V33.57c0,4.14.6,5.35,4.81,5.63v1.48c-3.44-.12-5.9-.16-8.5-.16s-6.19.1-8.95.16Z" transform="translate(0 0)"/><path id="Path_30" data-name="Path 30" class="cls-3" d="M198.75,27.73c0-8,5.07-13.54,13.8-13.54s13.92,5.63,13.92,13.54-5.1,13.7-13.87,13.7-13.85-5.64-13.85-13.7m19,0c0-6.9-1.66-11.65-5.19-11.65s-5.14,4.63-5.14,11.65,1.66,11.8,5.18,11.8,5.14-4.7,5.14-11.8" transform="translate(0 0)"/><path id="Path_31" data-name="Path 31" class="cls-3" d="M228.74,39.21c3.74-.28,4.15-3.14,4.15-6.35v-6c0-2.37-.16-5.8-1-6.74l-3-1.11-.22-1.38,11-3.36,1.37,1.1a40.34,40.34,0,0,0-.49,5.69,19,19,0,0,1,3-4.42,6.53,6.53,0,0,1,3.36-2.21c3.93,0,5.25,2.76,5,5.53l-1.55,1.37a10.33,10.33,0,0,0-4.79-1.37,6.18,6.18,0,0,0-4.76,2.47V32.74c0,3.54,0,5.9,4.76,6.41V40.7c-3.16-.12-6.58-.18-9.17-.18s-4.91,0-7.61.18Z" transform="translate(0 0)"/><path id="Path_32" data-name="Path 32" class="cls-3" d="M252.26,28.39c0-8.29,5.53-14.2,13-14.2s9.95,5.53,9.95,10.78l-1.39,1.37H260c.45,7.24,4,10.6,8.28,10.66a17.08,17.08,0,0,0,6.8-1.37l.55,1.65a83.64,83.64,0,0,1-9.16,4.14c-8.12.45-14.24-3.7-14.24-13m15.13-3.92c.16-5.53-1.48-8.17-3.32-8.17-3.16,0-4.15,4.24-4,8.49Z" transform="translate(0 0)"/><path id="Path_33" data-name="Path 33" class="cls-3" d="M277.33,39.21c3.76-.28,4.15-3.14,4.15-6.35v-6c0-2.37-.16-5.8-1.05-6.74l-3-1.11-.22-1.38,11.05-3.36,1.37,1.1A40.34,40.34,0,0,0,289.1,21a19,19,0,0,1,2.95-4.42,6.49,6.49,0,0,1,3.36-2.21c3.92,0,5.25,2.76,5,5.53l-1.55,1.37a10.36,10.36,0,0,0-4.79-1.37,6.16,6.16,0,0,0-4.76,2.47V32.74c0,3.54,0,5.9,4.76,6.41V40.7c-3.16-.12-6.58-.18-9.17-.18s-4.93,0-7.63.18Z" transform="translate(0 0)"/><line id="Line_3" data-name="Line 3" class="cls-4" x1="302.77" y1="37.96" x2="315.2" y2="46.25"/><line id="Line_4" data-name="Line 4" class="cls-4" x1="315.2" y1="46.25" x2="302.77" y2="54.53"/></g></g></g></g></svg>